<svg version="1" xmlns="http://www.w3.org/2000/svg" width="466.667" height="466.667" viewBox="0 0 350.000000 350.000000"><path d="M137.7 60.8c-4.3 11.9-9.4 25.7-11.2 30.7-3.7 9.7-29.4 80.3-35.5 97.5-2.1 5.8-12.6 34.7-23.4 64.3C56.8 283 48 307.4 48 307.6c0 .3 8.1.3 18.1.2l18.1-.3 13.1-37.3 13.1-37.2h116.4l6 17.3c6.7 19 17.4 49.4 19.2 54.4l1.2 3.3h19c14.8 0 18.9-.3 18.6-1.3-.3-.6-5.8-15.8-12.2-33.7-6.5-17.9-12.1-33.4-12.6-34.5-.9-2-26.6-72.6-34-93.5-2.1-5.8-5.1-14.1-6.8-18.5-1.6-4.4-4.2-11.4-5.7-15.5s-3-8.4-3.5-9.5c-.5-1.1-2.2-5.8-3.8-10.5-3.9-11-15-41.9-16.1-44.5-.5-1.1-1.3-3.2-2-4.8L193 39h-47.5l-7.8 21.8zm34.8 20.7c3.4 9.4 4.9 13.5 10.9 30.2 1.3 3.8 3.8 10.6 5.5 15.3 1.7 4.7 8.4 23.5 15 41.7l11.8 33.3H121l1.1-2.8c1.3-3.4 17.6-48.5 33.9-94 6.8-18.8 12.4-34.1 12.6-34 .1.2 1.9 4.8 3.9 10.3z"/></svg>