<svg version="1" xmlns="http://www.w3.org/2000/svg" width="533.333" height="533.333" viewBox="0 0 400.000000 400.000000"><path d="M188 51.3c-3.4 1.5-16 14.6-16 16.7 0 .5-.5 1-1.1 1-1.3 0-.8 43.2.6 46.2.4 1.1.3 1.8-.3 1.8s-1.4-1.7-1.7-3.8c-.3-2-1-6.1-1.6-9-.6-3-1.4-10.4-1.9-16.5-1-14.5-2.1-17.1-9.9-22.5-8.3-5.7-15.7-7.2-35.3-7.2-17 0-20.8.9-22.7 5.1-.7 1.5-2.4 4.5-3.9 6.6-2.6 3.6-2.7 4.4-3 18.4-.3 13.7.6 26.5 2.8 36.9 1.5 7.5 4.5 16.9 5.8 18.2.6.6 1.2 1.9 1.2 2.8 0 .9.9 3.3 2 5.5l2 4c0 .1-2.6-.3-5.7-.7-13-1.9-34-2.1-46.1-.3-11.8 1.7-12.8 2.1-19.9 8.1-1.2 1.1-3.3 2.8-4.7 3.8-1.4 1-2.6 2.6-2.6 3.5 0 1-.4 2.1-.9 2.6-1.2 1.3-2 8.5-2.7 23.8-.7 14.5.5 19.4 5.7 24.8 1.6 1.6 2.9 3.4 2.9 3.9 0 .6.7 1 1.5 1s1.5.4 1.5.9c0 .4-1.1.7-2.6.5-2.1-.2-2.3 0-1.3 1.2 1 1.2.9 1.3-.5.8-1.3-.5-1.5-.2-.9 1.2.6 1.7.5 1.8-1.2.4-1.4-1.2-1.9-1.2-2.3-.2-.2.7-1 1.9-1.8 2.7-.8.8-1.3 1.8-1.2 2.2.2.4-1 .8-2.7.9-4.2.2-4.5.3-4.5 1.4 0 .5.6.7 1.4.4.7-.3 1.6.2 1.9 1 .4 1 .1 1.3-.9.9-.8-.3-1.4.1-1.4 1.1s-.6 1.3-1.6.9c-1.1-.4-1.2-.8-.4-1.3.8-.5.8-1 .2-1.4-.5-.3-1.6.1-2.3 1-1 1.2-1 1.7 0 2.3 1 .6.9 1-.4 1.5-2.4.9-3.2.7-1.6-.3.8-.5.9-1.1.3-1.5-1.9-1.1-1.9 1.9-.1 11.1 5.5 26.9 18.9 55.2 36.3 76.9 8.7 10.9 25.2 26.4 36.7 34.7 12 8.6 35.2 20.3 49.6 25 37.9 12.3 78.7 12.3 116.6 0 14.2-4.7 37.4-16.3 49.7-25 12.3-8.7 34.6-31 43.3-43.3 3.7-5.2 9.8-15.6 13.6-23 26.2-51.6 26.2-110.4 0-162-14.5-28.5-35.8-52.2-62.9-70-13.3-8.8-28.9-16.3-30.7-14.9-.9.9-1.3.9-1.3 0 0-.6-.7-1.1-1.5-1.1-1.5 0-1.8.9-1.6 4 0 1-.1 1.1-.5.2-.9-1.9-2.4-1.4-1.8.5.5 1.5.3 1.5-1-.1-1.5-1.9-1.6-1.9-1.6-.1 0 1-.3 1.6-.6 1.2-.3-.3-1.3.1-2.2.9-1 .7-2.6 2.1-3.7 3-1.7 1.3-1.8 1.5-.2 1 1.1-.3 1.6-.2 1.2.4-.3.6-1.7.7-3.1.4-1.7-.4-2.4-.2-2.4.9 0 1 .8 1.3 2.8 1.1 2.7-.4 2.7-.4.2.5-1.4.4-3.3.4-4.2-.1-1.4-.7-1.6-.5-1.2.7.4.9.3 1.5-.2 1.4-2.2-.6-7.2 1.4-10 4l-3.1 2.9-1.9-6.1c-1.3-4.3-3.1-7.3-5.9-10.2-7.4-7.5-7.6-7.5-18.3-7.4-5.3 0-10.8.5-12.2 1.2zm32.3 128.6c4.3 3 9.7 8.8 9.7 10.5 0 .3 1.1 2.4 2.5 4.6 3 4.7 3.4 12.4.9 17.6-.9 1.9-1.4 4.3-1.1 5.4.3 1.3 0 2-.9 2-.8 0-1.4.9-1.4 2 0 3.2-2.2 7-4.2 7-1.4 0-1.8.8-1.8 3.7-.1 4-4.7 11-5.7 8.5-.2-.6-1.6-1.2-2.9-1.2-1.9 0-2.4.5-2.4 2.4 0 2.6-2.1 3.6-8.2 3.6-3.1 0-3.8-.4-3.8-2 0-1.5-.7-2-2.5-2s-2.5.5-2.5 2c0 1.9-.7 2-9.4 2-9.1 0-9.8-.2-17.3-4-5-2.5-9.4-5.7-12.1-8.7l-4.4-4.8.4-10.2c.3-7.8.7-10.7 2-11.9 1.5-1.5 1.6-1.5 2.3.5.4 1.4 1.5 2.1 3.1 2.1 2.2 0 2.4-.4 2.4-4.3.2-9.9 6.7-15.6 18-15.7 9 0 14-1 14-2.6 0-.8.4-1.4 1-1.4.5 0 1.2-1.2 1.6-2.8 1.5-6.9.9-6.5 9.8-6 7.1.4 8.7.9 12.9 3.7zM25.6 234.8c-1.7 1.6-1.8 1.6-.5-.5.7-1.2 1.5-2 1.8-1.7.3.2-.3 1.2-1.3 2.2z"/></svg>